{"title":"X-Art - Caprice - Paint Me White","uid":10950106,"size":451069593,"categoryP":"porn","categoryS":"movie_clips","magnet":"?xt=urn:btih:501479323b466a8a434d5404a2e99e0e92b4ea07&amp;dn=X-Art+-+Caprice+-+Paint+Me+White&amp;tr=udp%3A%2F%2Ftracker.openbittorrent.com%3A80&amp;tr=udp%3A%2F%2Fopen.demonii.com%3A1337&amp;tr=udp%3A%2F%2Ftracker.coppersurfer.tk%3A6969&amp;tr=udp%3A%2F%2Fexodus.desync.com%3A6969","seeders":2,"leechers":0,"uploader":null,"files":-1,"time":1409623435,"description":" &lt;a href=&quot;http://bayimg.com/dAaKiAAGC&quot; rel=&quot;nofollow&quot; target=&quot;_NEW&quot;&gt;http://bayimg.com/dAaKiAAGC&lt;/a&gt;\n\nHD Video: Let's mix it up a little by mixing up some paint and letting these two sexy lovebirds go wild! Okay so they don't go super wild in the sense of painting, but they certainly do in the sense of sex. Thank you Caprice for being flexible and thank you whoever left that ladder for their use! Do you like sex standing up? I certainly do! Let Caprice and Marcello inspire you to get creative...and paint each other white (in more ways than one maybe? ;-))\n\nX-Art_Caprice_Paint_Me_White.mp4\nFormat                                   : MPEG-4\nFormat profile                           : Base Media\nCodec ID                                 : isom\nFile size                                : 430 MiB\nDuration                                 : 16mn 19s\nOverall bit rate mode                    : Variable\nOverall bit rate                         : 3 683 Kbps\nWriting application                      : Lavf55.33.101\n\nVideo\nID                                       : 1\nFormat                                   : MPEG-4 Visual\nFormat profile                           : Simple@L1\nFormat settings, BVOP                    : No\nFormat settings, QPel                    : No\nFormat settings, GMC                     : No warppoints\nFormat settings, Matrix                  : Default (H.263)\nCodec ID                                 : 20\nDuration                                 : 16mn 19s\nBit rate mode                            : Variable\nBit rate                                 : 3 551 Kbps\nMaximum bit rate                         : 5 000 Kbps\nWidth                                    : 1 280 pixels\nHeight                                   : 720 pixels\nDisplay aspect ratio                     : 16:9\nFrame rate mode                          : Constant\nFrame rate                               : 25.000 fps\nColor space                              : YUV\nChroma subsampling                       : 4:2:0\nBit depth                                : 8 bits\nScan type                                : Progressive\nCompression mode                         : Lossy\nBits/(Pixel*Frame)                       : 0.154\nStream size                              : 415 MiB (96%)\nWriting library                          : Lavc55.52.102\nLanguage                                 : English\n\nAudio\nID                                       : 2\nFormat                                   : AAC\nFormat/Info                              : Advanced Audio Codec\nFormat profile                           : LC\nCodec ID                                 : 40\nDuration                                 : 16mn 19s\nBit rate mode                            : Constant\nBit rate                                 : 128 Kbps\nChannel(s)                               : 2 channels\nChannel positions                        : Front: L R\nSampling rate                            : 48.0 KHz\nCompression mode                         : Lossy\nStream size                              : 14.9 MiB (3%)\nLanguage                                 : English\n\n","torrent":{"xt":"urn:btih:501479323b466a8a434d5404a2e99e0e92b4ea07","amp;dn":"X-Art+-+Caprice+-+Paint+Me+White","amp;tr":["udp%3A%2F%2Ftracker.openbittorrent.com%3A80","udp%3A%2F%2Fopen.demonii.com%3A1337","udp%3A%2F%2Ftracker.coppersurfer.tk%3A6969","udp%3A%2F%2Fexodus.desync.com%3A6969"],"infoHash":"501479323b466a8a434d5404a2e99e0e92b4ea07","infoHashBuffer":{"type":"Buffer","data":[80,20,121,50,59,70,106,138,67,77,84,4,162,233,158,14,146,180,234,7]},"announce":[],"urlList":[]}}